<svg width="166" height="25" viewBox="0 0 166 25" fill="none" xmlns="http://www.w3.org/2000/svg">
<path d="M57.64 19.0001C60.28 19.0001 62.344 18.2081 63.856 16.6241C65.368 15.0401 66.136 12.8801 66.136 10.1681C66.136 7.43211 65.392 5.27211 63.904 3.6641C62.44 2.05611 60.424 1.26411 57.856 1.26411H51.16V19.0001H57.64ZM53.92 3.90411H57.784C59.488 3.90411 60.832 4.48011 61.792 5.6561C62.776 6.83211 63.256 8.29611 63.256 10.0961C63.256 11.9201 62.776 13.4321 61.792 14.6081C60.832 15.7841 59.488 16.3601 57.76 16.3601H53.92V3.90411Z" fill="#1D262F"/>
<path d="M82.7285 19.0001L75.7445 1.26411H73.9445L66.8885 19.0001H69.8645L71.5445 14.6321H78.0725L79.7525 19.0001H82.7285ZM77.2325 12.0881H72.4325L74.8325 5.6561L77.2325 12.0881Z" fill="#1D262F"/>
<path d="M85.8404 19.3841C86.7764 19.3841 87.4964 18.6641 87.4964 17.7041C87.4964 16.7681 86.7764 16.0481 85.8404 16.0481C84.8804 16.0481 84.1364 16.7681 84.1364 17.7041C84.1364 18.6641 84.8804 19.3841 85.8404 19.3841Z" fill="#1D262F"/>
<path d="M97.0853 19.0001C99.7253 19.0001 101.789 18.2081 103.301 16.6241C104.813 15.0401 105.581 12.8801 105.581 10.1681C105.581 7.43211 104.837 5.27211 103.349 3.6641C101.885 2.05611 99.8693 1.26411 97.3013 1.26411H90.6053V19.0001H97.0853ZM93.3653 3.90411H97.2293C98.9333 3.90411 100.277 4.48011 101.237 5.6561C102.221 6.83211 102.701 8.29611 102.701 10.0961C102.701 11.9201 102.221 13.4321 101.237 14.6081C100.277 15.7841 98.9333 16.3601 97.2053 16.3601H93.3653V3.90411Z" fill="#1D262F"/>
<path d="M109.799 4.36011C110.783 4.36011 111.551 3.59211 111.551 2.5601C111.551 1.57611 110.783 0.808105 109.799 0.808105C108.767 0.808105 107.975 1.57611 107.975 2.5601C107.975 3.59211 108.767 4.36011 109.799 4.36011ZM111.071 6.06411H108.431V19.0001H111.071V6.06411Z" fill="#1D262F"/>
<path d="M124.605 7.72011C123.453 6.4001 122.013 5.7521 120.309 5.7521C118.461 5.7521 116.877 6.37611 115.605 7.64811C114.333 8.89611 113.709 10.4801 113.709 12.3761C113.709 14.2721 114.309 15.8561 115.533 17.1281C116.757 18.4001 118.317 19.0241 120.189 19.0241C121.965 19.0241 123.405 18.3761 124.533 17.1041V18.0401C124.533 20.4401 122.853 22.1441 120.093 22.1441C118.485 22.1441 116.949 21.6401 115.509 20.6081L114.357 22.6481C116.061 23.8721 117.981 24.4961 120.141 24.4961C122.253 24.4961 123.957 23.8721 125.229 22.6481C126.501 21.4241 127.149 19.7681 127.149 17.6801V6.06411H124.605V7.72011ZM120.525 16.6721C119.349 16.6721 118.365 16.2641 117.573 15.4721C116.781 14.6561 116.397 13.6241 116.397 12.4001C116.397 11.1761 116.781 10.1681 117.573 9.37611C118.365 8.56011 119.349 8.15211 120.525 8.15211C121.725 8.15211 122.709 8.56011 123.501 9.35211C124.293 10.1441 124.677 11.1761 124.677 12.4001C124.677 13.6241 124.293 14.6321 123.501 15.4481C122.709 16.2641 121.725 16.6721 120.525 16.6721Z" fill="#1D262F"/>
<path d="M131.948 4.36011C132.932 4.36011 133.7 3.59211 133.7 2.5601C133.7 1.57611 132.932 0.808105 131.948 0.808105C130.916 0.808105 130.124 1.57611 130.124 2.5601C130.124 3.59211 130.916 4.36011 131.948 4.36011ZM133.22 6.06411H130.58V19.0001H133.22V6.06411Z" fill="#1D262F"/>
<path d="M144.45 16.1681C143.634 16.6481 142.866 16.8881 142.17 16.8881C140.85 16.8881 140.178 16.0721 140.178 14.4161V8.32011H144.642V6.06411H140.178V1.48011H137.562V6.06411H135.306V8.32011H137.538V14.3681C137.538 17.5601 138.978 19.3121 141.786 19.3121C143.202 19.3121 144.402 18.9521 145.362 18.2321L144.45 16.1681Z" fill="#1D262F"/>
<path d="M157.066 7.86411C155.89 6.44811 154.402 5.7521 152.65 5.7521C150.802 5.7521 149.242 6.37611 148.018 7.64811C146.794 8.92011 146.194 10.5041 146.194 12.4481C146.194 14.3921 146.794 16.0241 148.018 17.3441C149.242 18.6641 150.802 19.3121 152.65 19.3121C154.402 19.3121 155.89 18.6161 157.066 17.2241V19.0001H159.61V6.06411H157.066V7.86411ZM153.01 16.8881C151.786 16.8881 150.778 16.4801 150.01 15.6401C149.242 14.8001 148.858 13.7681 148.858 12.5441C148.858 11.3201 149.242 10.2881 150.01 9.4481C150.778 8.6081 151.786 8.17611 153.01 8.17611C154.234 8.17611 155.218 8.6081 156.01 9.4481C156.802 10.2881 157.186 11.3201 157.186 12.5201C157.186 13.7441 156.802 14.7761 156.01 15.6161C155.218 16.4561 154.234 16.8881 153.01 16.8881Z" fill="#1D262F"/>
<path d="M165.657 0.808105H163.017V19.0001H165.657V0.808105Z" fill="#1D262F"/>
<path d="M0 20.5913V1H8.06232C10.6119 1 17.365 2.85602 17.365 10.2801C17.365 17.7041 11.5767 20.2476 9.30268 20.5913H0Z" fill="#F7E511"/>
<path d="M34.73 1.00003L34.73 20.5913L26.6677 20.5913C24.118 20.5913 17.365 18.7353 17.365 11.3112C17.365 3.88717 23.1533 1.34374 25.4273 1.00003L34.73 1.00003Z" fill="#1D262F"/>
</svg>
